<?xml version="1.0" encoding="UTF-8" standalone="no"?>
<svg width="44px" height="79px" viewBox="0 0 44 79" version="1.1" xmlns="http://www.w3.org/2000/svg" xmlns:xlink="http://www.w3.org/1999/xlink">
    <!-- Generator: Sketch 39.1 (31720) - http://www.bohemiancoding.com/sketch -->
    <title>inky</title>
    <desc>Created with Sketch.</desc>
    <defs>
        <rect id="path-1" x="0" y="0" width="71" height="79"></rect>
        <linearGradient x1="74.5556392%" y1="21.5045114%" x2="45.3841903%" y2="89.533733%" id="linearGradient-3">
            <stop stop-color="#F3C187" offset="0%"></stop>
            <stop stop-color="#F0877F" offset="15.34%"></stop>
            <stop stop-color="#D76B8C" offset="55.37%"></stop>
            <stop stop-color="#4D3657" offset="100%"></stop>
        </linearGradient>
        <linearGradient x1="50.1328961%" y1="-45.9855929%" x2="48.6183069%" y2="117.300852%" id="linearGradient-4">
            <stop stop-color="#F0877F" offset="0%"></stop>
            <stop stop-color="#C95E70" offset="100%"></stop>
        </linearGradient>
        <linearGradient x1="52.8239994%" y1="-61.3022288%" x2="52.0257578%" y2="101.632548%" id="linearGradient-5">
            <stop stop-color="#F0877F" offset="0%"></stop>
            <stop stop-color="#C95E70" offset="100%"></stop>
        </linearGradient>
        <linearGradient x1="0.800114465%" y1="48.069994%" x2="100.595383%" y2="48.069994%" id="linearGradient-6">
            <stop stop-color="#EF827D" offset="0%"></stop>
            <stop stop-color="#F79F9C" offset="100%"></stop>
        </linearGradient>
        <linearGradient x1="0.0392834943%" y1="49.4414528%" x2="99.8024096%" y2="49.4414528%" id="linearGradient-7">
            <stop stop-color="#F0877F" offset="0%"></stop>
            <stop stop-color="#F79F9C" offset="100%"></stop>
        </linearGradient>
        <linearGradient x1="-0.277077694%" y1="49.2078596%" x2="99.2272136%" y2="49.2078596%" id="linearGradient-8">
            <stop stop-color="#F0877F" offset="0%"></stop>
            <stop stop-color="#F79F9C" offset="100%"></stop>
        </linearGradient>
        <linearGradient x1="-0.453067083%" y1="44.8440065%" x2="99.0615163%" y2="44.8440065%" id="linearGradient-9">
            <stop stop-color="#F2A28A" offset="0%"></stop>
            <stop stop-color="#F79F9C" offset="100%"></stop>
        </linearGradient>
        <linearGradient x1="3.57233391%" y1="48.8832938%" x2="100.05929%" y2="48.8832938%" id="linearGradient-10">
            <stop stop-color="#F3AA8D" offset="0%"></stop>
            <stop stop-color="#FBC0AC" offset="100%"></stop>
        </linearGradient>
        <linearGradient x1="0.509246631%" y1="48.5826536%" x2="100.740263%" y2="48.5826536%" id="linearGradient-11">
            <stop stop-color="#F3AA8D" offset="0%"></stop>
            <stop stop-color="#FBC0AC" offset="100%"></stop>
        </linearGradient>
        <linearGradient x1="1.89550516%" y1="47.8010518%" x2="102.118086%" y2="47.8010518%" id="linearGradient-12">
            <stop stop-color="#F2A28A" offset="0%"></stop>
            <stop stop-color="#F79F9C" offset="100%"></stop>
        </linearGradient>
        <linearGradient x1="0.3974%" y1="49.1873924%" x2="100.513189%" y2="49.1873924%" id="linearGradient-13">
            <stop stop-color="#404067" offset="31.93%"></stop>
            <stop stop-color="#232547" offset="59.13%"></stop>
            <stop stop-color="#212440" offset="100%"></stop>
        </linearGradient>
        <radialGradient cx="84.9311787%" cy="-1.86775%" fx="84.9311787%" fy="-1.86775%" r="72.5624739%" id="radialGradient-14">
            <stop stop-color="#404067" offset="0%"></stop>
            <stop stop-color="#232547" offset="59.13%"></stop>
            <stop stop-color="#212440" offset="100%"></stop>
        </radialGradient>
        <radialGradient cx="54.4952392%" cy="-46.213026%" fx="54.4952392%" fy="-46.213026%" r="66.092%" id="radialGradient-15">
            <stop stop-color="#404067" offset="0%"></stop>
            <stop stop-color="#232547" offset="59.13%"></stop>
            <stop stop-color="#212440" offset="100%"></stop>
        </radialGradient>
        <radialGradient cx="132.980697%" cy="11.98046%" fx="132.980697%" fy="11.98046%" r="80.4469862%" id="radialGradient-16">
            <stop stop-color="#404067" offset="0%"></stop>
            <stop stop-color="#232547" offset="59.13%"></stop>
            <stop stop-color="#212440" offset="100%"></stop>
        </radialGradient>
        <radialGradient cx="51.0847657%" cy="48.7900539%" fx="51.0847657%" fy="48.7900539%" r="15.8205128%" id="radialGradient-17">
            <stop stop-color="#404067" offset="0%"></stop>
            <stop stop-color="#232547" offset="59.13%"></stop>
            <stop stop-color="#212440" offset="100%"></stop>
        </radialGradient>
        <radialGradient cx="12.7296854%" cy="-5.50588393%" fx="12.7296854%" fy="-5.50588393%" r="72.5624739%" id="radialGradient-18">
            <stop stop-color="#404067" offset="0%"></stop>
            <stop stop-color="#232547" offset="59.13%"></stop>
            <stop stop-color="#212440" offset="100%"></stop>
        </radialGradient>
        <radialGradient cx="43.8508415%" cy="-46.213026%" fx="43.8508415%" fy="-46.213026%" r="61.1962963%" id="radialGradient-19">
            <stop stop-color="#404067" offset="0%"></stop>
            <stop stop-color="#232547" offset="59.13%"></stop>
            <stop stop-color="#212440" offset="100%"></stop>
        </radialGradient>
        <radialGradient cx="-31.6138108%" cy="15.4287359%" fx="-31.6138108%" fy="15.4287359%" r="80.4469862%" id="radialGradient-20">
            <stop stop-color="#404067" offset="0%"></stop>
            <stop stop-color="#232547" offset="59.13%"></stop>
            <stop stop-color="#212440" offset="100%"></stop>
        </radialGradient>
        <radialGradient cx="49.0046729%" cy="49.4839923%" fx="49.0046729%" fy="49.4839923%" r="15.8175826%" id="radialGradient-21">
            <stop stop-color="#404067" offset="0%"></stop>
            <stop stop-color="#232547" offset="59.13%"></stop>
            <stop stop-color="#212440" offset="100%"></stop>
        </radialGradient>
        <linearGradient x1="50.4968987%" y1="-1.064662%" x2="48.5990995%" y2="138.606368%" id="linearGradient-22">
            <stop stop-color="#8C5862" offset="0%"></stop>
            <stop stop-color="#404067" offset="31.93%"></stop>
            <stop stop-color="#232547" offset="59.13%"></stop>
            <stop stop-color="#212440" offset="100%"></stop>
        </linearGradient>
    </defs>
    <g id="Main" stroke="none" stroke-width="1" fill="none" fill-rule="evenodd">
        <g id="inky" transform="translate(-8.000000, 0.000000)">
            <mask id="mask-2" fill="white">
                <use xlink:href="#path-1"></use>
            </mask>
            <g id="Mask"></g>
            <g mask="url(#mask-2)" id="Layer_1">
                <g transform="translate(-12.000000, 0.000000)">
                    <g>
                        <g id="Main">
                            <g id="inky">
                                <g id="inky-big">
                                    <g id="Group_1_">
                                        <g id="Group">
                                            <g id="Page-1">
                                                <g id="Group">
                                                    <path d="M36.7366667,14.2543478 C36.7366667,14.2543478 29.0116667,10.8195652 25.75,16.4869565 C22.4883333,22.1543478 25.0633333,27.3065217 20.4283333,28.6804348 C20.4283333,28.6804348 27.6383333,32.2869565 34.8483333,27.9934783 C42.0583333,23.7 36.7366667,14.2543478 36.7366667,14.2543478 L36.7366667,14.2543478 L36.7366667,14.2543478 L36.7366667,14.2543478 Z" id="Shape_4_" fill="#F0877F"></path>
                                                    <path d="M36.7366667,14.2543478 C36.7366667,14.2543478 35.535,13.7391304 33.99,13.3956522 C32.445,16.1434783 31.7583333,19.5782609 31.7583333,22.4978261 C31.7583333,24.5586957 31.93,26.9630435 32.6166667,29.023913 C33.3033333,28.6804348 34.1616667,28.3369565 34.8483333,27.9934783 C42.0583333,23.7 36.7366667,14.2543478 36.7366667,14.2543478 L36.7366667,14.2543478 L36.7366667,14.2543478 L36.7366667,14.2543478 Z" id="Shape_5_" fill="#CE6C6A"></path>
                                                    <path d="M83.6016667,81.4043478 C82.0566667,85.526087 77.25,88.6173913 70.7266667,88.4456522 C64.2033333,88.273913 59.225,85.526087 58.3666667,81.4043478 C57.5083333,77.7978261 58.5383333,70.4130435 58.8816667,68.8673913 C60.9416667,66.8065217 61.4566667,65.4326087 61.1133333,63.0282609 L61.4566667,63.0282609 C62.83,63.0282609 63.5166667,61.9978261 63.5166667,60.623913 C63.5166667,59.25 62.83,58.2195652 61.4566667,58.2195652 C60.77,58.2195652 62.315,55.6434783 61.9716667,56.1586957 C61.9716667,54.0978261 61.6283333,52.3804348 61.6283333,50.4913043 C61.6283333,50.3195652 61.8,49.8043478 61.8,49.8043478 C61.8,49.8043478 64.2033333,46.1978261 60.9416667,44.4804348 C60.9416667,44.4804348 61.9716667,37.6108696 56.4783333,31.2565217 C52.1866667,25.9326087 51.5,21.6391304 51.5,21.6391304 C51.5,21.6391304 57.165,20.4369565 59.9116667,15.9717391 C62.6583333,11.5065217 63.5166667,6.86956522 58.195,2.74782609 C52.8733333,-1.37391304 49.2683333,0.686956522 44.6333333,3.43478261 C40.17,6.01086957 31.7583333,14.2543478 34.3333333,31.4282609 C35.535,38.8130435 36.7366667,42.076087 37.4233333,44.1369565 C37.4233333,44.1369565 33.3033333,46.3695652 35.7066667,50.4913043 C36.2216667,51.1782609 35.535,52.5521739 35.535,53.5826087 L36.05,56.8456522 C35.535,56.3304348 37.2516667,58.7347826 36.565,58.7347826 C35.1916667,58.7347826 34.505,59.9369565 34.505,61.1391304 C34.505,62.5130435 35.1916667,63.5434783 36.565,63.5434783 L36.9083333,63.5434783 C36.9083333,64.4021739 37.08,66.2913043 38.11,67.8369565 C38.2816667,69.8978261 38.2816667,78.1413043 35.7066667,81.4043478 L83.6016667,81.4043478 Z M35.8783333,101.326087 C35.8783333,101.326087 36.2216667,106.821739 42.23,109.569565 C48.41,112.317391 53.9033333,110.256522 56.4783333,106.821739 C57.5083333,105.447826 58.5383333,103.386957 59.3966667,101.326087 C60.5983333,102.356522 61.6283333,103.386957 62.6583333,104.58913 C66.6066667,109.397826 66.95,116.095652 66.0916667,119.358696 C65.405,122.278261 63.6883333,123.995652 63.345,124.167391 C63.1733333,124.33913 63.0016667,124.51087 62.83,124.682609 C62.1433333,125.369565 60.4266667,126.743478 58.71,126.571739 L58.5383333,126.571739 C57.3366667,126.571739 55.9633333,125.884783 55.9633333,124.51087 C55.9633333,123.652174 56.135,122.621739 56.9933333,122.106522 C57.165,121.763043 57.5083333,121.419565 58.0233333,121.247826 C59.0533333,120.732609 60.4266667,120.045652 61.285,121.247826 C61.285,121.419565 62.4866667,122.45 62.4866667,122.106522 C61.8,118.5 57.3366667,119.530435 56.135,120.732609 C54.9333333,121.763043 50.2983333,126.915217 56.65,130.35 C57.165,130.521739 57.5083333,130.865217 58.0233333,131.036957 C57.5083333,131.552174 56.135,133.269565 54.9333333,133.441304 C53.7316667,133.613043 55.105,134.986957 56.65,134.643478 C57.8516667,134.128261 59.9116667,132.41087 61.1133333,131.036957 C64.5466667,130.521739 66.6066667,127.430435 68.6666667,123.823913 C70.7266667,120.217391 70.7266667,115.752174 69.8683333,110.943478 C72.2716667,112.145652 77.0783333,113.691304 82.5716667,111.630435 C90.2966667,108.71087 90.64,102.184783 90.64,100.467391 C90.64,98.75 88.7516667,93.5978261 95.275,92.5673913 C100.94,91.7086957 101.455,96.0021739 101.455,97.0326087 C101.455,97.0326087 101.455,97.0326087 101.455,97.2043478 C102.313333,95.4869565 102.313333,92.223913 99.395,90.3347826 L99.395,90.3347826 L99.395,90.3347826 C99.2233333,90.3347826 99.0516667,90.1630435 98.88,90.1630435 C96.1333333,89.3043478 90.125,89.3043478 88.065,91.5369565 C86.005,93.9413043 85.6616667,97.5478261 86.3483333,101.154348 C87.035,104.417391 87.035,105.963043 86.1766667,107.336957 C85.8333333,107.852174 85.49,108.367391 84.975,108.71087 C84.1166667,109.569565 83.0866667,110.084783 81.885,110.428261 C81.37,110.6 80.855,110.6 80.1683333,110.771739 C75.3616667,111.802174 69.01,108.53913 69.01,108.53913 L69.01,108.53913 C68.8383333,107.680435 68.495,106.821739 68.3233333,105.963043 C67.465,102.528261 64.375,98.9217391 61.8,96.3456522 C62.1433333,95.8304348 62.4866667,95.4869565 63.0016667,95.1434783 C65.7483333,93.2543478 72.2716667,90.6782609 75.0183333,94.2847826 C77.765,98.0630435 76.5633333,102.7 73.4733333,103.902174 C71.7566667,104.58913 71.07,105.619565 71.585,105.963043 C72.1,106.478261 74.5033333,106.134783 76.5633333,103.730435 C78.6233333,101.326087 79.825,97.2043478 76.3916667,93.0826087 C75.8766667,92.3956522 75.705,92.0521739 74.8466667,91.7086957 C77.9366667,91.0217391 83.6016667,87.9304348 84.975,82.0913043 L35.8783333,101.326087 Z M8.24,121.076087 C9.44166667,123.480435 11.1583333,125.713043 12.36,128.117391 C13.5616667,130.35 14.42,132.067391 14.42,134.128261 C14.42,137.047826 12.7033333,139.967391 9.785,140.654348 C6.695,141.341304 2.06,141.169565 0.515,135.502174 L0.515,137.047826 C0.858333333,138.421739 1.71666667,140.654348 3.94833333,141.513043 C6.52333333,142.543478 10.815,143.230435 13.905,140.482609 C16.1366667,138.593478 16.995,136.36087 17.1666667,135.158696 C17.3383333,133.613043 17.6816667,132.23913 17.51,131.036957 C17.1666667,128.632609 16.48,126.915217 14.7633333,123.823913 C13.905,122.45 12.7033333,121.076087 12.0166667,119.702174 L8.24,121.076087 Z M34.3333333,90.6782609 C34.3333333,90.6782609 31.5866667,94.1130435 28.4966667,96.8608696 L34.3333333,90.6782609 Z M49.6116667,108.71087 C43.0883333,109.741304 41.2,105.276087 41.715,100.63913 C42.23,96.173913 49.44,90.6782609 51.8433333,88.1021739 C51.8433333,88.1021739 51.1566667,95.8304348 57.68,99.7804348 C57.68,99.9521739 56.135,107.680435 49.6116667,108.71087 L49.6116667,108.71087 L49.6116667,108.71087 L49.6116667,108.71087 Z M60.77,94.6282609 C59.225,93.2543478 58.0233333,92.0521739 57.68,91.8804348 C58.3666667,92.3956522 59.225,92.7391304 60.0833333,92.9108696 C60.77,93.0826087 61.4566667,92.9108696 62.6583333,92.9108696 C62.4866667,93.0826087 61.8,93.426087 61.6283333,93.5978261 C61.4566667,93.9413043 61.1133333,94.2847826 60.77,94.6282609 L60.77,94.6282609 L60.77,94.6282609 L60.77,94.6282609 Z" id="Shape_18_" fill="url(#linearGradient-3)"></path>
                                                    <path d="M44.4616667,66.4630435 C44.4616667,66.4630435 48.7533333,68.523913 53.7316667,66.6347826 C53.9033333,66.6347826 50.8133333,71.2717391 44.4616667,66.4630435 L44.4616667,66.4630435 L44.4616667,66.4630435 L44.4616667,66.4630435 Z" id="Shape_21_" fill="#B75978"></path>
                                                    <path d="M42.23,41.9043478 C40.5133333,41.5608696 38.4533333,41.7326087 36.9083333,42.4195652 L37.4233333,43.7934783 C37.4233333,43.7934783 41.0283333,42.076087 45.6633333,44.1369565 C45.6633333,44.1369565 44.805,42.7630435 42.23,41.9043478 L42.23,41.9043478 L42.23,41.9043478 L42.23,41.9043478 Z" id="Shape_22_" fill="url(#linearGradient-4)"></path>
                                                    <path d="M52.7016667,42.9347826 C52.015,43.45 51.5,44.3086957 51.5,44.3086957 C56.65,42.2478261 60.5983333,44.3086957 60.5983333,44.3086957 C60.77,43.9652174 60.5983333,42.7630435 60.5983333,42.2478261 C58.195,41.2173913 54.59,41.7326087 52.7016667,42.9347826 L52.7016667,42.9347826 L52.7016667,42.9347826 L52.7016667,42.9347826 Z" id="Shape_23_" fill="url(#linearGradient-5)"></path>
                                                    <path d="M52.7016667,35.8934783 C52.7016667,35.8934783 48.925,32.1152174 42.9166667,34.0043478 C37.595,35.55 37.9383333,40.0152174 37.9383333,40.0152174 C37.9383333,40.0152174 40.8566667,34.6913043 52.7016667,35.8934783 L52.7016667,35.8934783 L52.7016667,35.8934783 L52.7016667,35.8934783 Z" id="Shape_26_" fill="url(#linearGradient-6)"></path>
                                                    <path d="M47.38,27.1347826 C47.38,27.1347826 43.775,23.8717391 38.9683333,25.7608696 C34.8483333,27.3065217 36.2216667,31.4282609 36.2216667,31.4282609 C36.2216667,31.4282609 38.625,25.5891304 47.38,27.1347826 L47.38,27.1347826 L47.38,27.1347826 L47.38,27.1347826 Z" id="Shape_27_" fill="url(#linearGradient-7)"></path>
                                                    <path d="M44.805,20.4369565 C44.805,20.4369565 41.8866667,17.173913 37.08,18.7195652 C33.8183333,19.75 34.505,23.3565217 34.505,23.3565217 C34.6766667,23.5282609 36.7366667,19.2347826 44.805,20.4369565 L44.805,20.4369565 L44.805,20.4369565 L44.805,20.4369565 Z" id="Shape_28_" fill="url(#linearGradient-8)"></path>
                                                    <path d="M43.6033333,14.2543478 C43.6033333,14.2543478 41.2,11.6782609 36.2216667,12.8804348 C35.8783333,13.5673913 35.535,14.2543478 35.3633333,14.9413043 C38.625,13.3956522 43.6033333,14.2543478 43.6033333,14.2543478 L43.6033333,14.2543478 L43.6033333,14.2543478 L43.6033333,14.2543478 Z" id="Shape_29_" fill="url(#linearGradient-9)"></path>
                                                    <path d="M43.26,8.41521739 C43.26,8.41521739 42.745,6.35434783 40.685,6.1826087 C40.17,6.69782609 39.8266667,7.04130435 39.3116667,7.55652174 C41.8866667,7.55652174 43.26,8.41521739 43.26,8.41521739 L43.26,8.41521739 L43.26,8.41521739 L43.26,8.41521739 Z" id="Shape_30_" fill="url(#linearGradient-10)"></path>
                                                    <path d="M57.8516667,12.5369565 C57.8516667,12.5369565 59.74,12.8804348 61.285,12.5369565 C61.8,11.3347826 61.9716667,9.96086957 61.8,8.75869565 C61.4566667,9.78913043 60.4266667,12.3652174 57.8516667,12.5369565 L57.8516667,12.5369565 L57.8516667,12.5369565 L57.8516667,12.5369565 Z" id="Shape_31_" fill="url(#linearGradient-11)"></path>
                                                    <path d="M53.9033333,15.9717391 C53.9033333,15.9717391 55.105,18.0326087 56.9933333,18.8913043 C57.8516667,18.2043478 58.5383333,17.5173913 59.225,16.4869565 C58.71,16.6586957 56.3066667,17.173913 53.9033333,15.9717391 L53.9033333,15.9717391 L53.9033333,15.9717391 L53.9033333,15.9717391 Z" id="Shape_32_" fill="url(#linearGradient-12)"></path>
                                                    <path d="M51.3283333,21.6391304 C51.3283333,21.6391304 49.6116667,15.6282609 52.8733333,9.6173913 C52.8733333,9.6173913 50.8133333,14.9413043 54.4183333,20.6086957 C54.4183333,20.4369565 53.2166667,21.123913 51.3283333,21.6391304 L51.3283333,21.6391304 L51.3283333,21.6391304 L51.3283333,21.6391304 Z" id="Shape_33_" fill="#D87575"></path>
                                                    <path d="M52.3583333,61.1391304 C52.3583333,61.1391304 52.8733333,61.3108696 53.3883333,61.4826087 L53.3883333,61.6543478 C53.3883333,61.9978261 53.2166667,62.1695652 53.045,62.1695652 C52.53,62.3413043 50.8133333,62.8565217 48.2383333,62.3413043 C48.2383333,62.3413043 49.955,63.5434783 52.7016667,62.8565217 C52.7016667,62.8565217 52.8733333,62.8565217 53.2166667,62.6847826 C53.3883333,62.6847826 53.3883333,62.5130435 53.56,62.5130435 C53.56,62.5130435 53.7316667,62.5130435 53.7316667,62.3413043 L53.7316667,62.3413043 L53.7316667,62.3413043 C53.9033333,62.1695652 53.9033333,61.9978261 53.9033333,61.6543478 C54.2466667,61.826087 54.4183333,62.1695652 54.7616667,62.5130435 C54.7616667,62.5130435 54.59,60.4521739 52.3583333,61.1391304 L52.3583333,61.1391304 L52.3583333,61.1391304 L52.3583333,61.1391304 Z" id="Shape_40_" fill="url(#linearGradient-13)"></path>
                                                    <g id="Shape_50_" transform="translate(56.557939, 46.022936)">
                                                        <path d="M2.40333333,5.49565217 L3.09,6.1826087 C3.09,6.1826087 4.97833333,5.32391304 5.49333333,4.63695652 C5.83666667,4.12173913 6.18,2.57608696 6.00833333,1.20217391 C6.00833333,1.20217391 5.49333333,3.26304348 1.88833333,4.46521739 L2.40333333,5.49565217 L2.40333333,5.49565217 L2.40333333,5.49565217 L2.40333333,5.49565217 Z" id="Shape" fill="url(#radialGradient-14)"></path>
                                                        <path d="M5.32166667,5.15217391 C3.94833333,5.32391304 3.09,5.32391304 3.09,5.32391304 L3.09,6.35434783 L3.77666667,7.38478261 C3.77666667,7.38478261 5.15,7.04130435 5.83666667,6.69782609 C6.52333333,6.52608696 7.38166667,5.15217391 7.38166667,3.09130435 C7.38166667,3.09130435 6.86666667,4.80869565 5.32166667,5.15217391 L5.32166667,5.15217391 L5.32166667,5.15217391 L5.32166667,5.15217391 Z" id="Shape" fill="url(#radialGradient-15)"></path>
                                                        <path d="M1.03,5.15217391 L1.88833333,5.49565217 L3.605,3.95 C3.94833333,3.60652174 4.46333333,2.40434783 3.77666667,0.515217391 C3.77666667,0.515217391 3.77666667,1.88913043 2.23166667,2.74782609 C0.515,3.43478261 0.171666667,4.63695652 0.171666667,4.63695652 L1.03,5.15217391 L1.03,5.15217391 L1.03,5.15217391 L1.03,5.15217391 Z" id="Shape" fill="url(#radialGradient-16)"></path>
                                                    </g>
                                                    <path d="M57.165,50.1478261 C54.4183333,49.8043478 51.8433333,51.5217391 51.5,53.926087 C51.3283333,55.4717391 52.1866667,57.1891304 53.7316667,58.0478261 C54.59,57.5326087 55.62,57.3608696 56.8216667,57.3608696 C57.8516667,57.3608696 58.8816667,57.5326087 59.74,58.0478261 C60.77,57.3608696 61.4566667,56.3304348 61.6283333,55.1282609 C61.9716667,52.723913 59.9116667,50.4913043 57.165,50.1478261 L57.165,50.1478261 L57.165,50.1478261 L57.165,50.1478261 Z" id="Shape_51_" fill="#FFFFFF"></path>
                                                    <ellipse id="Oval" fill="#FFFFFF" cx="40.685" cy="54.7847826" rx="4.80666667" ry="4.80869565"></ellipse>
                                                    <ellipse id="Oval_1_" fill="#FFFFFF" cx="56.4783333" cy="54.7847826" rx="4.80666667" ry="4.80869565"></ellipse>
                                                    <path d="M57.3366667,52.0369565 C57.3366667,52.723913 56.8216667,53.4108696 56.135,53.5826087 C55.4483333,53.7543478 54.59,53.4108696 54.2466667,52.5521739 C53.56,53.2391304 53.2166667,54.2695652 53.3883333,55.3 C53.7316667,56.8456522 55.105,57.7043478 56.65,57.1891304 C58.0233333,56.8456522 59.0533333,55.3 58.71,53.7543478 C58.5383333,52.8956522 58.0233333,52.2086957 57.3366667,52.0369565 L57.3366667,52.0369565 L57.3366667,52.0369565 L57.3366667,52.0369565 Z" id="Shape_52_" fill="url(#radialGradient-17)"></path>
                                                    <g id="Shape_53_" transform="translate(32.974080, 46.022936)">
                                                        <path d="M5.32166667,5.49565217 L4.635,6.1826087 C4.635,6.1826087 2.74666667,5.32391304 2.23166667,4.63695652 C1.88833333,4.29347826 1.545,2.74782609 1.71666667,1.37391304 C1.71666667,1.37391304 2.23166667,3.43478261 5.83666667,4.63695652 L5.32166667,5.49565217 L5.32166667,5.49565217 L5.32166667,5.49565217 L5.32166667,5.49565217 Z" id="Shape" fill="url(#radialGradient-18)"></path>
                                                        <path d="M2.40333333,5.15217391 C3.77666667,5.32391304 4.635,5.32391304 4.635,5.32391304 L4.80666667,6.35434783 L3.94833333,7.38478261 C3.94833333,7.38478261 2.575,7.04130435 1.88833333,6.69782609 C1.20166667,6.52608696 0.343333333,5.15217391 0.171666667,3.09130435 C0.171666667,3.09130435 0.686666667,4.80869565 2.40333333,5.15217391 L2.40333333,5.15217391 L2.40333333,5.15217391 L2.40333333,5.15217391 Z" id="Shape" fill="url(#radialGradient-19)"></path>
                                                        <path d="M6.52333333,5.15217391 L5.665,5.32391304 L3.94833333,3.77826087 C3.605,3.43478261 3.09,2.40434783 3.77666667,0.343478261 C3.77666667,0.343478261 3.77666667,1.7173913 5.32166667,2.57608696 C7.03833333,3.43478261 7.38166667,4.63695652 7.38166667,4.63695652 L6.52333333,5.15217391 L6.52333333,5.15217391 L6.52333333,5.15217391 L6.52333333,5.15217391 Z" id="Shape" fill="url(#radialGradient-20)"></path>
                                                    </g>
                                                    <path d="M40.17,50.1478261 C42.9166667,49.8043478 45.4916667,51.5217391 45.835,53.926087 C46.0066667,55.4717391 45.1483333,57.1891304 43.6033333,58.0478261 C42.745,57.5326087 41.715,57.3608696 40.3416667,57.3608696 C39.14,57.3608696 38.2816667,57.5326087 37.4233333,58.0478261 C36.3933333,57.3608696 35.7066667,56.3304348 35.535,55.1282609 C35.3633333,52.723913 37.4233333,50.4913043 40.17,50.1478261 L40.17,50.1478261 L40.17,50.1478261 L40.17,50.1478261 Z" id="Shape_54_" fill="#FFFFFF"></path>
                                                    <path d="M38.625,53.7543478 C38.2816667,55.3 39.14,56.8456522 40.685,57.1891304 C42.0583333,57.5326087 43.6033333,56.673913 43.9466667,55.3 C44.1183333,54.2695652 43.775,53.2391304 43.0883333,52.5521739 C42.745,53.4108696 42.0583333,53.926087 41.2,53.5826087 C40.5133333,53.4108696 39.9983333,52.723913 39.9983333,52.0369565 C39.3116667,52.2086957 38.7966667,52.8956522 38.625,53.7543478 L38.625,53.7543478 L38.625,53.7543478 L38.625,53.7543478 Z" id="Shape_55_" fill="url(#radialGradient-21)"></path>
                                                    <path d="M56.4783333,48.6021739 C54.7616667,48.6021739 53.045,49.2891304 52.015,50.4913043 C51.1566667,50.1478261 50.1266667,49.976087 48.925,49.976087 C47.5516667,49.976087 46.35,50.1478261 45.32,50.6630435 C44.1183333,49.4608696 42.5733333,48.6021739 40.685,48.6021739 C37.2516667,48.6021739 34.3333333,51.35 34.3333333,54.6130435 C34.3333333,58.0478261 37.08,60.623913 40.685,60.623913 C44.29,60.623913 47.0366667,57.876087 47.0366667,54.6130435 C47.0366667,53.5826087 46.865,52.5521739 46.35,51.6934783 C47.0366667,51.35 48.0666667,51.1782609 48.925,51.1782609 C49.6116667,51.1782609 50.47,51.35 51.1566667,51.5217391 C50.6416667,52.3804348 50.2983333,53.4108696 50.2983333,54.6130435 C50.2983333,58.0478261 53.045,60.623913 56.65,60.623913 C60.255,60.623913 63.0016667,57.876087 63.0016667,54.6130435 C62.83,51.1782609 60.0833333,48.6021739 56.4783333,48.6021739 L56.4783333,48.6021739 L56.4783333,48.6021739 L56.4783333,48.6021739 Z M40.685,59.0782609 C38.2816667,59.0782609 36.2216667,57.1891304 36.2216667,54.7847826 C36.2216667,52.3804348 38.2816667,50.4913043 40.685,50.4913043 C43.0883333,50.4913043 45.1483333,52.3804348 45.1483333,54.7847826 C45.32,57.0173913 43.26,59.0782609 40.685,59.0782609 L40.685,59.0782609 L40.685,59.0782609 L40.685,59.0782609 Z M56.4783333,59.0782609 C54.075,59.0782609 52.015,57.1891304 52.015,54.7847826 C52.015,52.3804348 54.075,50.4913043 56.4783333,50.4913043 C58.8816667,50.4913043 60.9416667,52.3804348 60.9416667,54.7847826 C61.1133333,57.0173913 59.0533333,59.0782609 56.4783333,59.0782609 L56.4783333,59.0782609 L56.4783333,59.0782609 L56.4783333,59.0782609 Z" id="Shape_56_" fill="url(#linearGradient-22)"></path>
                                                </g>
                                            </g>
                                        </g>
                                    </g>
                                </g>
                            </g>
                        </g>
                    </g>
                </g>
            </g>
        </g>
    </g>
</svg>