<?xml version="1.0" encoding="UTF-8" standalone="no"?>
<svg width="12px" height="9px" viewBox="0 0 12 9" version="1.1" xmlns="http://www.w3.org/2000/svg" xmlns:xlink="http://www.w3.org/1999/xlink">
    <!-- Generator: Sketch 39.1 (31720) - http://www.bohemiancoding.com/sketch -->
    <title>arrow-right-white</title>
    <desc>Created with Sketch.</desc>
    <defs></defs>
    <g id="Icons" stroke="none" stroke-width="1" fill="none" fill-rule="evenodd">
        <path d="M0.250345206,5.07448825 L4.13468865,8.76231994 C4.46908117,9.07922669 5.01109651,9.07922669 5.34489012,8.76231994 C5.67948227,8.44541319 5.67948227,7.9308188 5.34489012,7.61334344 L2.92109335,5.31216831 L11.1445541,5.31216831 C11.6170956,5.31216831 12,4.94863533 12,4.5 C12,4.05136467 11.6170956,3.68783169 11.1445541,3.68783169 L2.92109335,3.68783169 L5.34489012,1.38665656 C5.67948227,1.06974981 5.67948227,0.555155421 5.34489012,0.237680061 C5.17799331,0.0792266869 4.95899117,-3.55271368e-15 4.73978938,-3.55271368e-15 C4.5205876,-3.55271368e-15 4.30158545,0.0792266869 4.13468865,0.237680061 L0.250345206,3.92551175 C-0.0834484021,4.2424185 -0.0834484021,4.75682335 0.250345206,5.07448825 L0.250345206,5.07448825 Z" id="Fill-2-Copy-2" fill="#FFFFFF" transform="translate(6.000000, 4.500000) rotate(-180.000000) translate(-6.000000, -4.500000) "></path>
    </g>
</svg>