<?xml version="1.0" encoding="UTF-8" standalone="no"?>
<svg width="13px" height="13px" viewBox="0 0 13 13" version="1.1" xmlns="http://www.w3.org/2000/svg" xmlns:xlink="http://www.w3.org/1999/xlink">
    <!-- Generator: Sketch 39.1 (31720) - http://www.bohemiancoding.com/sketch -->
    <title>containers</title>
    <desc>Created with Sketch.</desc>
    <defs></defs>
    <g id="Icons" stroke="none" stroke-width="1" fill="none" fill-rule="evenodd">
        <g id="Group-31-Copy-2" transform="translate(3.000000, 3.000000)" fill="#454545">
            <path d="M3.41601144,4.29789571 C3.37715637,4.29789571 3.3383013,4.2876569 3.3030984,4.26728377 L0.115765067,2.40214944 C0.0447505741,2.36056735 0.000823037905,2.28377631 1.14437021e-05,2.19977631 C-0.000800150501,2.11608974 0.0416056466,2.03814944 0.111808545,1.99489571 L3.31496797,0.0331195896 C3.3866926,-0.0109699627 3.47586652,-0.0109699627 3.54799695,0.0327016791 L6.73533028,1.96626884 C6.80543173,2.00879123 6.84824333,2.08673153 6.84783753,2.17073153 C6.84743173,2.2544181 6.80380855,2.33194049 6.7328955,2.37362705 L3.52973608,4.26644795 C3.49483753,4.28723899 3.45527231,4.29789571 3.41601144,4.29789571 L3.41601144,4.29789571 Z M0.683576661,2.19277631 L3.41560565,3.79138825 L6.16427231,2.1666569 L3.43224333,0.509328545 L0.683576661,2.19277631 Z" id="Fill-1"></path>
            <path d="M3.41602609,5.54676744 C3.37717102,5.54676744 3.33831595,5.53663311 3.30311305,5.5161555 L0.115779714,3.65112565 C0.00601159841,3.58697639 -0.032437677,3.44300624 0.0297507288,3.32985699 C0.0919391346,3.21681221 0.232243482,3.17690177 0.341605801,3.24136445 L3.41562029,5.03952863 L6.50546087,3.2131555 C6.61482319,3.1482749 6.75472174,3.187454 6.81772174,3.30008087 C6.88072174,3.41270774 6.84267827,3.55678236 6.73331595,3.62166296 L3.53015653,5.51500624 C3.49485218,5.5362152 3.45528696,5.54676744 3.41602609,5.54676744 L3.41602609,5.54676744 Z" id="Fill-2"></path>
            <path d="M3.41602609,6.8190768 C3.37717102,6.8190768 3.33831595,6.80883799 3.30311305,6.78846486 L0.115779714,4.92374844 C0.00601159841,4.85970366 -0.032437677,4.71562904 0.0297507288,4.60258426 C0.0919391346,4.48953949 0.232243482,4.44994247 0.341605801,4.51398725 L3.41562029,6.31215143 L6.50546087,4.48588277 C6.61482319,4.42100217 6.75472174,4.46018128 6.81772174,4.57280814 C6.88072174,4.68543501 6.84267827,4.82950963 6.73331595,4.89439023 L3.53015653,6.78762904 C3.49485218,6.80883799 3.45528696,6.8190768 3.41602609,6.8190768 L3.41602609,6.8190768 Z" id="Fill-3"></path>
        </g>
    </g>
</svg>