<?xml version="1.0" encoding="UTF-8" standalone="no"?>
<svg width="13px" height="13px" viewBox="0 0 13 13" version="1.1" xmlns="http://www.w3.org/2000/svg" xmlns:xlink="http://www.w3.org/1999/xlink">
    <!-- Generator: Sketch 39.1 (31720) - http://www.bohemiancoding.com/sketch -->
    <title>controls</title>
    <desc>Created with Sketch.</desc>
    <defs></defs>
    <g id="Icons" stroke="none" stroke-width="1" fill="none" fill-rule="evenodd">
        <g id="Page-1-Copy-3" transform="translate(4.000000, 2.000000)" fill="#454545">
            <path d="M4.26688889,4.56077778 L2.61933333,4.39411111 C2.61933333,3.60377778 2.55688889,2.81333333 2.55688889,2.02255556 C2.55688889,1.78433333 2.35811111,1.58588889 2.12022222,1.58588889 C1.882,1.58588889 1.79555556,1.78466667 1.79555556,2.02255556 L1.79555556,5.35066667 C1.66144444,5.16966667 1.14666667,4.63111111 1.14022222,4.62277778 C0.970444444,4.39366667 0.393222222,4.25733333 0.126333333,4.41366667 C-0.100222222,4.54644444 0.314666667,4.86677778 0.484777778,5.09722222 C1.10288889,5.93277778 1.59244444,6.76388889 2.21055556,7.59944444 C2.28211111,7.74222222 2.37888889,7.87022222 2.49477778,7.97788889 C2.553,8.043 2.62155556,8.09633333 2.69577778,8.132 C2.89977778,8.25911111 3.14066667,8.33288889 3.39844444,8.33288889 C4.09633333,8.33288889 4.66844444,7.79466667 4.72311111,7.11066667 C4.72566667,7.09066667 4.72788889,7.07033333 4.72788889,7.04944444 L4.95311111,5.08466667 C4.95311111,4.83677778 4.51522222,4.56077778 4.26688889,4.56077778 L4.26688889,4.56077778 Z" id="Fill-1"></path>
            <path d="M1.53555556,3.974 L1.53555556,3.503 C0.930111111,3.28433333 0.496111111,2.70355556 0.496111111,2.023 C0.496111111,1.15533333 1.20222222,0.449222222 2.06988889,0.449222222 C2.93755556,0.449222222 3.64366667,1.15533333 3.64366667,2.023 C3.64366667,2.59977778 3.33155556,3.10455556 2.86766667,3.37888889 C2.87411111,3.54388889 2.88066667,3.70877778 2.88666667,3.87322222 C3.59633333,3.55855556 4.09244444,2.84811111 4.09244444,2.023 C4.09288889,0.907555556 3.18533333,0 2.06988889,0 C0.954444444,0 0.0468888889,0.907555556 0.0468888889,2.023 C0.0468888889,2.95355556 0.678333333,3.73911111 1.53555556,3.974 L1.53555556,3.974 Z" id="Fill-2"></path>
        </g>
    </g>
</svg>