<?xml version="1.0" encoding="UTF-8" standalone="no"?>
<svg width="20px" height="20px" viewBox="0 0 20 20" version="1.1" xmlns="http://www.w3.org/2000/svg" xmlns:xlink="http://www.w3.org/1999/xlink">
    <!-- Generator: Sketch 39.1 (31720) - http://www.bohemiancoding.com/sketch -->
    <title>delete</title>
    <desc>Created with Sketch.</desc>
    <defs></defs>
    <g id="Icons" stroke="none" stroke-width="1" fill="none" fill-rule="evenodd">
        <path d="M15.7365258,0.732119749 L9.99706263,6.47158293 L4.25759945,0.732119749 C3.28143979,-0.244039916 1.70827942,-0.244039916 0.732119749,0.732119749 C-0.244039916,1.70827942 -0.244039916,3.28143979 0.732119749,4.25759945 L6.47158293,9.99706263 L0.732119749,15.7365258 C-0.244039916,16.7126855 -0.244039916,18.2858458 0.732119749,19.2620055 C1.23194906,19.7618348 1.85117852,20 2.4948596,20 C3.13727047,20 3.7812691,19.7618348 4.25759945,19.2620055 L9.99706263,13.5225423 L15.7365258,19.2620055 C16.2363551,19.7618348 16.8555846,20 17.4992657,20 C18.1416765,20 18.7856752,19.7618348 19.2620055,19.2620055 C20.2381652,18.2858458 20.2381652,16.7139557 19.2620055,15.7365258 L13.5225423,9.99706263 L19.2620055,4.25759945 C20.2381652,3.28143979 20.2381652,1.70827942 19.2620055,0.732119749 C18.2858458,-0.244039916 16.7126855,-0.244039916 15.7365258,0.732119749 Z" id="Page-1" fill="#000000"></path>
    </g>
</svg>