<?xml version="1.0" encoding="UTF-8" standalone="no"?>
<svg width="13px" height="13px" viewBox="0 0 13 13" version="1.1" xmlns="http://www.w3.org/2000/svg" xmlns:xlink="http://www.w3.org/1999/xlink">
    <!-- Generator: Sketch 39.1 (31720) - http://www.bohemiancoding.com/sketch -->
    <title>general</title>
    <desc>Created with Sketch.</desc>
    <defs></defs>
    <g id="Icons" stroke="none" stroke-width="1" fill="none" fill-rule="evenodd">
        <g id="Group-29-Copy-2" transform="translate(3.000000, 3.000000)" fill="#454545">
            <ellipse id="Oval" cx="3.5" cy="1.1921716" rx="1.05" ry="1.05203488"></ellipse>
            <path d="M5.76382979,3.96937984 C5.58510638,3.96937984 5.4212766,4.00668605 5.27234043,4.07383721 L4.18510638,2.17868217 C4.48297872,1.9623062 4.68404255,1.60416667 4.68404255,1.20125969 C4.68404255,0.537209302 4.14787234,0 3.48510638,0 C2.82234043,0 2.28617021,0.537209302 2.28617021,1.20125969 C2.28617021,1.60416667 2.47978723,1.95484496 2.78510638,2.17868217 L1.69042553,4.07383721 C1.54148936,4.00668605 1.37021277,3.96937984 1.19893617,3.96937984 C0.536170213,3.96937984 0,4.50658915 0,5.17063953 C0,5.83468992 0.536170213,6.37189922 1.19893617,6.37189922 C1.81702128,6.37189922 2.33085106,5.89437984 2.39042553,5.29001938 L4.57234043,5.29001938 C4.63191489,5.89437984 5.14574468,6.37189922 5.76382979,6.37189922 C6.42659574,6.37189922 6.96276596,5.83468992 6.96276596,5.17063953 C6.96276596,4.50658915 6.42659574,3.96937984 5.76382979,3.96937984 L5.76382979,3.96937984 Z M2.52446809,1.20125969 C2.52446809,0.671511628 2.95638298,0.23875969 3.48510638,0.23875969 C4.01382979,0.23875969 4.44574468,0.671511628 4.44574468,1.20125969 C4.44574468,1.73100775 4.01382979,2.16375969 3.48510638,2.16375969 C2.95638298,2.16375969 2.52446809,1.73100775 2.52446809,1.20125969 L2.52446809,1.20125969 Z M2.99361702,2.29806202 C3.14255319,2.36521318 3.31382979,2.40251938 3.48510638,2.40251938 C3.65638298,2.40251938 3.82765957,2.36521318 3.97659574,2.29806202 L5.0712766,4.19321705 C4.80319149,4.3872093 4.61702128,4.69312016 4.57978723,5.04379845 L2.39042553,5.04379845 C2.35319149,4.69312016 2.16702128,4.3872093 1.89893617,4.19321705 L2.99361702,2.29806202 L2.99361702,2.29806202 Z M1.19893617,6.12567829 C0.670212766,6.12567829 0.238297872,5.69292636 0.238297872,5.16317829 C0.238297872,4.63343023 0.670212766,4.20067829 1.19893617,4.20067829 C1.72765957,4.20067829 2.15957447,4.63343023 2.15957447,5.16317829 C2.15212766,5.7003876 1.72765957,6.12567829 1.19893617,6.12567829 L1.19893617,6.12567829 Z M5.76382979,6.12567829 C5.23510638,6.12567829 4.80319149,5.69292636 4.80319149,5.16317829 C4.80319149,4.63343023 5.23510638,4.20067829 5.76382979,4.20067829 C6.29255319,4.20067829 6.72446809,4.63343023 6.72446809,5.16317829 C6.72446809,5.7003876 6.29255319,6.12567829 5.76382979,6.12567829 L5.76382979,6.12567829 Z" id="Shape"></path>
            <ellipse id="Oval" cx="1.25999146" cy="5.13536822" rx="1.05" ry="1.05203488"></ellipse>
            <ellipse id="Oval" cx="5.71666667" cy="5.13536822" rx="1.05" ry="1.05203488"></ellipse>
        </g>
    </g>
</svg>