<?xml version="1.0" encoding="UTF-8" standalone="no"?>
<svg width="13px" height="13px" viewBox="0 0 13 13" version="1.1" xmlns="http://www.w3.org/2000/svg" xmlns:xlink="http://www.w3.org/1999/xlink">
    <!-- Generator: Sketch 39.1 (31720) - http://www.bohemiancoding.com/sketch -->
    <title>libraries</title>
    <desc>Created with Sketch.</desc>
    <defs></defs>
    <g id="Icons" stroke="none" stroke-width="1" fill="none" fill-rule="evenodd">
        <g id="Group-35-Copy-2" transform="translate(3.000000, 2.500000)" fill="#454545">
            <path d="M5.37427751,0 C5.21750558,0 5.09090909,0.131781818 5.09090909,0.293672727 L5.09090909,7.52043636 C5.09090909,7.68232727 5.21750558,7.81352727 5.37427751,7.81352727 C5.53048804,7.81352727 5.65722488,7.68232727 5.65722488,7.52043636 L5.65722488,0.293672727 C5.65778628,0.131781818 5.53104944,0 5.37427751,0 L5.37427751,0 Z" id="Fill-1"></path>
            <path d="" id="Fill-2"></path>
            <path d="" id="Fill-3"></path>
            <path d="M6.55623604,0 C6.39988517,0 6.27272727,0.131781818 6.27272727,0.293672727 L6.27272727,7.52043636 C6.27272727,7.68232727 6.39988517,7.81352727 6.55623604,7.81352727 C6.71300797,7.81352727 6.83960447,7.68232727 6.83960447,7.52043636 L6.83960447,0.293672727 C6.83960447,0.131781818 6.71300797,0 6.55623604,0 L6.55623604,0 Z" id="Fill-4"></path>
            <path d="M3.74813397,0.00116363636 L2.69115152,0 C2.41213397,0 2.1851866,0.234181818 2.1851866,0.525090909 L2.18181818,7.2592 C2.18181818,7.54778182 2.40778309,7.78356364 2.68792344,7.78414545 L3.7443445,7.78472727 C4.02448485,7.78472727 4.25087081,7.54952727 4.25087081,7.26021818 L4.25423923,0.526254545 C4.25480064,0.236363636 4.02827432,0.00116363636 3.74813397,0.00116363636 L3.74813397,0.00116363636 Z M3.64736204,2.52 L2.78925678,2.51883636 C2.69171292,2.51883636 2.61171292,2.43636364 2.61171292,2.33527273 C2.61227432,2.2336 2.69171292,2.15112727 2.78981818,2.15112727 L3.64778309,2.15170909 C3.7454673,2.15170909 3.8249059,2.23418182 3.8249059,2.33585455 C3.8243445,2.43694545 3.7454673,2.52 3.64736204,2.52 L3.64736204,2.52 Z M3.6483445,1.73643636 L2.79037959,1.73585455 C2.69283573,1.73527273 2.61269537,1.65294545 2.61269537,1.55170909 C2.61269537,1.45003636 2.69283573,1.36770909 2.79037959,1.36770909 L3.6483445,1.36829091 C3.74602871,1.36829091 3.8254673,1.4512 3.8254673,1.55229091 C3.8249059,1.65396364 3.74602871,1.73643636 3.6483445,1.73643636 L3.6483445,1.73643636 Z" id="Fill-5"></path>
            <path d="M1.56575853,0.00116363636 L0.509898885,0 C0.230179587,0 0.00323221854,0.234181818 0.00267081504,0.525090909 L4.14836936e-06,7.25861818 C-0.00111865865,7.5472 0.22582871,7.78298182 0.505407657,7.78356364 L1.56140766,7.78414545 C1.84154801,7.78414545 2.06849538,7.54894545 2.06905678,7.25978182 L2.07172345,0.525672727 C2.07228485,0.236363636 1.84589889,0.00116363636 1.56575853,0.00116363636 L1.56575853,0.00116363636 Z M1.46596906,2.52 L0.608004148,2.51883636 C0.510460289,2.51883636 0.430319938,2.43636364 0.430319938,2.33527273 C0.430881341,2.2336 0.510460289,2.15112727 0.608004148,2.15112727 L1.46596906,2.15170909 C1.56351292,2.15170909 1.64309187,2.23418182 1.64309187,2.33585455 C1.64309187,2.43694545 1.56351292,2.52 1.46596906,2.52 L1.46596906,2.52 Z M1.46596906,1.73643636 L0.608565552,1.73585455 C0.510881341,1.73527273 0.431442745,1.65294545 0.431442745,1.55170909 C0.431442745,1.45003636 0.510881341,1.36770909 0.608565552,1.36770909 L1.46596906,1.36829091 C1.56351292,1.36829091 1.64309187,1.4512 1.64309187,1.55229091 C1.64309187,1.65396364 1.56351292,1.73643636 1.46596906,1.73643636 L1.46596906,1.73643636 Z" id="Fill-6"></path>
        </g>
    </g>
</svg>