<?xml version="1.0" encoding="UTF-8" standalone="no"?>
<svg width="13px" height="13px" viewBox="0 0 13 13" version="1.1" xmlns="http://www.w3.org/2000/svg" xmlns:xlink="http://www.w3.org/1999/xlink">
    <!-- Generator: Sketch 39.1 (31720) - http://www.bohemiancoding.com/sketch -->
    <title>media</title>
    <desc>Created with Sketch.</desc>
    <defs></defs>
    <g id="Icons" stroke="none" stroke-width="1" fill="none" fill-rule="evenodd">
        <g id="Group-32-Copy-2" transform="translate(3.000000, 3.500000)" fill="#454545">
            <polygon id="Fill-1" points="4.28067984 3.38649776 3.5721581 2.96555887 2.86363636 2.54545455 2.86363636 4.22764531 3.5721581 3.8071237"></polygon>
            <path d="M6.84742029,3.51074516 L6.84742029,0 L0.000405797101,0 L0.000405797101,3.51032787 L0,3.51032787 L0,6.17418778 L6.84782609,6.17418778 L6.84782609,3.51032787 L6.84742029,3.51074516 Z M1.63942029,0.350006104 C1.74086957,0.350006104 1.82334783,0.434819814 1.82334783,0.538724434 C1.82334783,0.643046342 1.74086957,0.727755731 1.63942029,0.727755731 C1.53797101,0.727755731 1.4555942,0.643046342 1.4555942,0.538724434 C1.4555942,0.434402527 1.53797101,0.350006104 1.63942029,0.350006104 L1.63942029,0.350006104 Z M1.16068116,0.350006104 C1.26213043,0.350006104 1.3446087,0.434819814 1.3446087,0.538724434 C1.3446087,0.643046342 1.26213043,0.727755731 1.16068116,0.727755731 C1.05923188,0.727755731 0.976855072,0.643046342 0.976855072,0.538724434 C0.976855072,0.434402527 1.05923188,0.350006104 1.16068116,0.350006104 L1.16068116,0.350006104 Z M0.682043478,0.350006104 C0.783492754,0.350006104 0.865869565,0.434819814 0.865869565,0.538724434 C0.865869565,0.643046342 0.783492754,0.727755731 0.682043478,0.727755731 C0.580594203,0.727755731 0.498521739,0.643046342 0.498521739,0.538724434 C0.498115942,0.434402527 0.580594203,0.350006104 0.682043478,0.350006104 L0.682043478,0.350006104 Z M6.34971014,3.6366617 L6.34971014,5.60688525 L0.498115942,5.60688525 L0.498115942,1.0938152 L6.34971014,1.0938152 L6.34971014,3.6366617 Z" id="Fill-2"></path>
        </g>
    </g>
</svg>