<?xml version="1.0" encoding="UTF-8" standalone="no"?>
<svg width="13px" height="13px" viewBox="0 0 13 13" version="1.1" xmlns="http://www.w3.org/2000/svg" xmlns:xlink="http://www.w3.org/1999/xlink">
    <!-- Generator: Sketch 39.1 (31720) - http://www.bohemiancoding.com/sketch -->
    <title>navigation</title>
    <desc>Created with Sketch.</desc>
    <defs></defs>
    <g id="Icons" stroke="none" stroke-width="1" fill="none" fill-rule="evenodd">
        <g id="Group-30-Copy-2" transform="translate(3.000000, 4.000000)" fill="#454545">
            <path d="M6.93396226,2.19545455 C6.93396226,2.35747273 6.79515094,2.48181818 6.62701887,2.48181818 L0.306943396,2.48181818 C0.138811321,2.48181818 0,2.35747273 0,2.19545455 C0,2.03343636 0.138811321,1.90909091 0.306943396,1.90909091 L6.61671698,1.90909091 C6.79515094,1.90909091 6.93396226,2.03343636 6.93396226,2.19545455 L6.93396226,2.19545455 Z" id="Fill-1"></path>
            <path d="M6.93396226,4.10454545 C6.93396226,4.26656364 6.79515094,4.39090909 6.62701887,4.39090909 L0.306943396,4.39090909 C0.138811321,4.39090909 0,4.26656364 0,4.10454545 C0,3.94252727 0.138811321,3.81818182 0.306943396,3.81818182 L6.61671698,3.81818182 C6.79515094,3.81818182 6.93396226,3.94252727 6.93396226,4.10454545 L6.93396226,4.10454545 Z" id="Fill-2"></path>
            <path d="M6.93396226,0.286363636 C6.93396226,0.448381818 6.79515094,0.572727273 6.62701887,0.572727273 L0.306943396,0.572727273 C0.138811321,0.572727273 0,0.448381818 0,0.286363636 C0,0.124345455 0.138811321,0 0.306943396,0 L6.61671698,0 C6.79515094,0 6.93396226,0.124345455 6.93396226,0.286363636 L6.93396226,0.286363636 Z" id="Fill-3"></path>
        </g>
    </g>
</svg>