<?xml version="1.0" encoding="UTF-8" standalone="no"?>
<svg width="13px" height="13px" viewBox="0 0 13 13" version="1.1" xmlns="http://www.w3.org/2000/svg" xmlns:xlink="http://www.w3.org/1999/xlink">
    <!-- Generator: Sketch 39.1 (31720) - http://www.bohemiancoding.com/sketch -->
    <title>older-versions</title>
    <desc>Created with Sketch.</desc>
    <defs></defs>
    <g id="Icons" stroke="none" stroke-width="1" fill="none" fill-rule="evenodd">
        <g id="Group-36-Copy-2" transform="translate(3.000000, 3.000000)" fill="#454545">
            <path d="M5.65384615,0 L1.34615385,0 L1.07692308,0.538461538 L5.92307692,0.538461538 L5.65384615,0 Z M6.73076923,1.61538462 L0.269230769,1.61538462 L0,2.15384615 L7,2.15384615 L6.73076923,1.61538462 Z M6.19230769,0.807692308 L0.807692308,0.807692308 L0.538461538,1.34615385 L6.46153846,1.34615385 L6.19230769,0.807692308 Z M0,7 L7,7 L7,2.42307692 L0,2.42307692 L0,7 Z M1.88461538,4.03846154 L2.42307692,4.03846154 L2.42307692,4.57692308 C2.42307692,4.73846154 2.58461538,4.84615385 2.8,4.84615385 L4.22685128,4.84615385 C4.4422359,4.84615385 4.60391795,4.73846154 4.60391795,4.57692308 L4.60391795,4.03846154 L5.14237949,4.03846154 L5.14237949,4.57692308 C5.14237949,5.03468718 4.76531282,5.38461538 4.28084103,5.38461538 L2.77314872,5.38461538 C2.28838974,5.38461538 1.91161026,5.03468718 1.91161026,4.57692308 C1.91161026,4.11915897 1.88461538,4.03846154 1.88461538,4.03846154 L1.88461538,4.03846154 Z" id="Page-1"></path>
        </g>
    </g>
</svg>