<?xml version="1.0" encoding="UTF-8" standalone="no"?>
<svg width="20px" height="20px" viewBox="0 0 20 20" version="1.1" xmlns="http://www.w3.org/2000/svg" xmlns:xlink="http://www.w3.org/1999/xlink">
    <!-- Generator: Sketch 39.1 (31720) - http://www.bohemiancoding.com/sketch -->
    <title>open</title>
    <desc>Created with Sketch.</desc>
    <defs></defs>
    <g id="Icons" stroke="none" stroke-width="1" fill="none" fill-rule="evenodd">
        <g id="Page-1" fill="#454545">
            <path d="M10.7021053,4.83817669 L13.6389474,4.83817669 C10.59,7.77924812 10.1963158,8.15988722 5.68868421,12.426344 C5.13052632,12.9546711 5.12236842,13.8189756 5.67026316,14.3571992 C5.94789474,14.6297368 6.31368421,14.7657519 6.67973684,14.7657519 C7.03736842,14.7657519 7.39605263,14.634812 7.67157895,14.3749624 C12.1915789,10.0978477 12.5842105,9.71720865 15.6455263,6.76522556 L15.7215789,6.6918891 L15.7215789,9.21375 C15.7215789,9.96792293 16.3557895,10.5787218 17.1371053,10.5787218 C17.9194737,10.5787218 18.5526316,9.96690789 18.5526316,9.21375 L18.5526316,3.47244361 C18.5526316,2.71903195 17.9184211,2.1074718 17.1360526,2.1074718 L10.7021053,2.1074718 C9.91973684,2.1074718 9.28657895,2.71903195 9.28657895,3.47244361 C9.28657895,4.22661654 9.91973684,4.83817669 10.7021053,4.83817669 L10.7021053,4.83817669 Z" id="Fill-1"></path>
            <path d="M18.4663158,12.0446898 C17.7578947,12.0446898 17.1834211,12.5986466 17.1834211,13.2817669 L17.1834211,16.8115602 L2.56578947,16.8115602 L2.56578947,2.63275376 L7.40131579,2.63275376 C8.10947368,2.63275376 8.68421053,2.07854323 8.68421053,1.39567669 C8.68421053,0.71281015 8.10947368,0.158599624 7.40131579,0.158599624 L1.28289474,0.158599624 C0.574736842,0.158599624 0,0.71281015 0,1.39567669 L0,18.0486372 C0,18.7315038 0.574736842,19.2857143 1.28289474,19.2857143 L18.4663158,19.2857143 C19.1744737,19.2857143 19.7492105,18.7315038 19.7492105,18.0486372 L19.7492105,13.2817669 C19.7492105,12.5978853 19.1744737,12.0446898 18.4663158,12.0446898 L18.4663158,12.0446898 Z" id="Fill-2"></path>
        </g>
    </g>
</svg>