<?xml version="1.0" encoding="UTF-8" standalone="no"?>
<svg width="14px" height="14px" viewBox="0 0 14 14" version="1.1" xmlns="http://www.w3.org/2000/svg" xmlns:xlink="http://www.w3.org/1999/xlink">
    <!-- Generator: Sketch 39.1 (31720) - http://www.bohemiancoding.com/sketch -->
    <title>pin</title>
    <desc>Created with Sketch.</desc>
    <defs></defs>
    <g id="Symbols" stroke="none" stroke-width="1" fill="none" fill-rule="evenodd">
        <g id="Docs-Frame---scroll" transform="translate(-1093.000000, -16.000000)" fill="#757575">
            <g id="Search-Area">
                <g id="Group-39" transform="translate(1086.000000, 10.000000)">
                    <path d="M20.8816954,8.93758874 L18.0570351,6.11495897 C17.9037565,5.96168034 17.6544015,5.96168034 17.5010962,6.11495897 L17.1761038,6.43995134 C17.0228252,6.59325668 17.0228252,6.84261164 17.1761038,6.99589027 L17.306913,7.12669943 L14.0857374,10.3499055 C13.3090847,9.92477576 12.3177832,10.0392338 11.6616802,10.6953101 L10.5007489,11.8562414 C10.3474702,12.00952 10.3474702,12.258875 10.5007489,12.4121803 L11.9253557,13.8367605 L7.10585574,19.1631994 C6.96072597,19.3246536 6.96484047,19.5801269 7.1181191,19.733459 L7.25913437,19.8744742 C7.41243971,20.0277529 7.66791299,20.0359284 7.82939391,19.8867376 L13.1516916,15.0733559 L14.5640084,16.4856994 C14.717287,16.6389781 14.966642,16.6389781 15.1199473,16.4856994 L16.2808786,15.3247681 C16.9349244,14.6707223 17.0534702,13.6896536 16.6365428,12.9129475 L19.8597756,9.68974141 L19.9905847,9.82055057 C20.1438634,9.9738292 20.3932183,9.9738292 20.5465504,9.82055057 L20.871516,9.49555821 C21.0350008,9.34227958 21.0350008,9.09292462 20.8816954,8.93758874 L20.8816954,8.93758874 Z" id="pin"></path>
                </g>
            </g>
        </g>
    </g>
</svg>