<?xml version="1.0" encoding="UTF-8" standalone="no"?>
<svg width="13px" height="13px" viewBox="0 0 13 13" version="1.1" xmlns="http://www.w3.org/2000/svg" xmlns:xlink="http://www.w3.org/1999/xlink">
    <!-- Generator: Sketch 39.1 (31720) - http://www.bohemiancoding.com/sketch -->
    <title>plugins</title>
    <desc>Created with Sketch.</desc>
    <defs></defs>
    <g id="Icons" stroke="none" stroke-width="1" fill="none" fill-rule="evenodd">
        <g id="Group-33-Copy-2" transform="translate(2.250000, 0.500000)" fill="#454545">
            <path d="M6.05889,7.04499 L6.73389,6.36999 L7.79613,7.43223 C7.94001,7.57611 8.18325,7.60323 8.34501,7.46823 C8.53389,7.31547 8.54277,7.03611 8.37225,6.87435 L7.29225,5.79435 L7.70613,5.38047 C7.81389,5.27259 7.81389,5.09259 7.70613,4.98435 L6.94113,4.21935 C6.21225,3.49047 5.07825,3.40047 4.25001,3.94935 L3.61113,3.31047 C2.87325,2.57259 1.67613,2.51823 0.91113,3.22935 C0.11001,3.98499 0.09225,5.24499 0.85725,6.00999 L0.86613,6.01887 C1.28001,6.43275 1.28001,7.11675 0.86613,7.53111 L0.12825,8.26887 C-0.04275,8.43999 -0.04275,8.70999 0.12825,8.87175 C0.29937,9.04275 0.56937,9.04275 0.73113,8.87175 L1.48725,8.11563 C2.23437,7.36839 2.23437,6.17175 1.49613,5.42451 C1.10889,5.03739 1.04613,4.41675 1.37889,3.98451 C1.78389,3.47175 2.53113,3.43563 2.98113,3.88563 L3.65613,4.56063 C3.10725,5.38839 3.19725,6.52275 3.92613,7.25175 L4.69113,8.01675 C4.79889,8.12451 4.97889,8.12451 5.08725,8.01675 L5.50113,7.60275 L6.56325,8.66499 C6.70725,8.80887 6.95049,8.83611 7.11225,8.70111 C7.30113,8.54823 7.31001,8.26887 7.13937,8.10723 L6.05889,7.04499 Z" id="Page-1"></path>
        </g>
    </g>
</svg>