<?xml version="1.0" encoding="UTF-8" standalone="no"?>
<svg width="13px" height="13px" viewBox="0 0 13 13" version="1.1" xmlns="http://www.w3.org/2000/svg" xmlns:xlink="http://www.w3.org/1999/xlink">
    <!-- Generator: Sketch 39.1 (31720) - http://www.bohemiancoding.com/sketch -->
    <title>sass</title>
    <desc>Created with Sketch.</desc>
    <defs></defs>
    <g id="Icons" stroke="none" stroke-width="1" fill="none" fill-rule="evenodd">
        <g id="Sass-Logo-(Color)" transform="translate(2.250000, 3.054348)" fill="#454545">
            <path d="M7.57146051,3.74280191 C7.265462,3.74437982 6.99951565,3.81696367 6.77682563,3.92426153 C6.69511923,3.76489265 6.61341282,3.62288077 6.59899404,3.51873873 C6.58297317,3.39723968 6.56374814,3.32307792 6.58297317,3.17791022 C6.60219821,3.03274253 6.68871088,2.82603635 6.68710879,2.81025725 C6.68550671,2.79447816 6.66788376,2.7203164 6.49165425,2.71873849 C6.31542474,2.71716058 6.16322653,2.75187459 6.14560358,2.79763397 C6.12798063,2.84339336 6.09433681,2.9475354 6.0719076,3.05483326 C6.04146796,3.21262424 5.71944858,3.77593802 5.53520864,4.07100714 C5.47593145,3.95581973 5.42466468,3.8548335 5.41345007,3.77436011 C5.39742921,3.65286106 5.37820417,3.5786993 5.39742921,3.4335316 C5.41665425,3.2883639 5.50316692,3.08165773 5.50156483,3.06587863 C5.49996274,3.05009953 5.48233979,2.97593778 5.30611028,2.97435987 C5.12988077,2.97278196 4.97768256,3.00749597 4.96005961,3.05325535 C4.94243666,3.09901474 4.92321162,3.2063126 4.88636364,3.31045464 C4.84951565,3.41459668 4.42175857,4.35503089 4.30961252,4.59802899 C4.25193741,4.72268386 4.20227273,4.82209218 4.16702683,4.88994229 L4.16702683,4.88994229 C4.16702683,4.88994229 4.16542474,4.89467602 4.16061848,4.90256557 C4.13017884,4.96094823 4.11255589,4.99250643 4.11255589,4.99250643 C4.11255589,4.99250643 4.11255589,4.99250643 4.11255589,4.99408434 C4.08852459,5.0366879 4.06289121,5.07613564 4.05007452,5.07613564 C4.040462,5.07613564 4.02283905,4.96252614 4.05327869,4.80789099 C4.11736215,4.48126367 4.26956036,3.97317673 4.26795827,3.95581973 C4.26795827,3.94635227 4.29679583,3.85798932 4.16862891,3.81222994 C4.04366617,3.76647056 3.99880775,3.84221022 3.98759314,3.84221022 C3.97637854,3.84221022 3.96836811,3.86903469 3.96836811,3.86903469 C3.96836811,3.86903469 4.10774963,3.29783136 3.70242176,3.29783136 C3.4492921,3.29783136 3.10003726,3.57080975 2.92701192,3.81696367 C2.81807004,3.87534633 2.58576751,4.0000012 2.33744411,4.13412353 C2.24292101,4.18619455 2.14519374,4.23826557 2.05387481,4.28718077 C2.04746647,4.28086913 2.04105812,4.27297958 2.03464978,4.26666795 C1.54441133,3.75069146 0.637630402,3.38619431 0.676080477,2.69349193 C0.690499255,2.44102637 0.778614009,1.77830428 2.41754844,0.973570312 C3.76009687,0.314004039 4.83509687,0.495463659 5.0209389,0.897830644 C5.28688525,1.47218979 4.44578987,2.53885678 3.05197466,2.69349193 C2.52008197,2.75187459 2.24131893,2.54990215 2.17082712,2.47416248 C2.09713115,2.39526699 2.08591654,2.39053326 2.05868107,2.40631236 C2.01382265,2.429981 2.04266021,2.50098694 2.05868107,2.5420126 C2.10033532,2.64931046 2.27175857,2.83865963 2.56173621,2.9317563 C2.81807004,3.01380761 3.44128167,3.05956699 4.19586438,2.77238742 C5.04016393,2.45049383 5.70022355,1.55581901 5.50637109,0.806311879 C5.30931446,0.0457593826 4.02764531,-0.205128267 2.81486587,0.219329454 C2.09392697,0.471795013 1.31210879,0.867850359 0.749776453,1.38540475 C0.0817064083,2.00078955 -0.0240312966,2.53570096 0.0192250373,2.75976414 C0.174627422,3.55503065 1.2880775,4.07258505 1.73345753,4.45601712 C1.71102832,4.46864039 1.69020119,4.47968576 1.67257824,4.48915322 C1.44988823,4.59802899 0.600782414,5.03510999 0.389307004,5.49743755 C0.148994039,6.02130358 0.427757079,6.3968461 0.611997019,6.44733921 C1.18394188,6.60355228 1.7719076,6.32268434 2.08751863,5.85877888 C2.40312966,5.39487341 2.36467958,4.79211189 2.21888972,4.51597769 C2.21728763,4.51282187 2.21568554,4.50966605 2.21248137,4.50651023 C2.27015648,4.47337412 2.32943368,4.43866011 2.38710879,4.405524 C2.50085693,4.33925179 2.61300298,4.27771331 2.70912817,4.2272202 C2.65465723,4.37396581 2.61460507,4.54911379 2.59538003,4.80157935 C2.57134873,5.09822638 2.69470939,5.48323636 2.85652012,5.63471569 C2.92861401,5.7009879 3.01352459,5.70256581 3.06799553,5.70256581 C3.25704173,5.70256581 3.34195231,5.54793066 3.43647541,5.36489313 C3.55182563,5.14082994 3.65596125,4.88047484 3.65596125,4.88047484 C3.65596125,4.88047484 3.52619225,5.58422258 3.87865127,5.58422258 C4.00681818,5.58422258 4.13658718,5.42011997 4.1942623,5.33649075 L4.1942623,5.33806866 C4.1942623,5.33806866 4.19746647,5.33333493 4.20387481,5.32228956 C4.21669151,5.30177674 4.22470194,5.28915346 4.22470194,5.28915346 L4.22470194,5.28599764 C4.2759687,5.19763469 4.39131893,4.99724016 4.56274218,4.6643012 C4.7838301,4.23510975 4.9969076,3.69862044 4.9969076,3.69862044 C4.9969076,3.69862044 5.01613264,3.82958695 5.08181818,4.04733849 C5.12026826,4.17514918 5.20037258,4.31558315 5.26445604,4.45128339 C5.21318927,4.52228932 5.18114754,4.56173707 5.18114754,4.56173707 C5.18114754,4.56173707 5.18114754,4.56173707 5.18274963,4.56331498 C5.14109538,4.61696391 5.09623696,4.67534657 5.04657228,4.73215132 C4.87194486,4.93727959 4.66367362,5.17238814 4.63483607,5.24023826 C4.60119225,5.32071165 4.60920268,5.37909431 4.67328614,5.42643161 C4.71974665,5.46114562 4.80305514,5.46587935 4.88796572,5.46114562 C5.04497019,5.45010025 5.15551416,5.41223042 5.2099851,5.38856177 C5.29489568,5.35858149 5.39422504,5.31282211 5.48714605,5.24497199 C5.6585693,5.12031712 5.76270492,4.94201332 5.7530924,4.70690476 C5.74828614,4.57751617 5.70502981,4.44812757 5.65216095,4.32662852 C5.66818182,4.30453778 5.6826006,4.28244704 5.69862146,4.26035631 C5.96937407,3.8706126 6.17924739,3.44299906 6.17924739,3.44299906 C6.17924739,3.44299906 6.19847243,3.57396557 6.26415797,3.79171711 C6.2961997,3.9021708 6.36188525,4.02209194 6.41956036,4.13885726 C6.16482861,4.34240761 6.00782414,4.57909407 5.95175112,4.73372923 C5.85081967,5.0209088 5.92932191,5.1502974 6.07831595,5.18027769 C6.14560358,5.19447887 6.24172876,5.16292068 6.31222057,5.13294039 C6.40193741,5.10453802 6.50767511,5.05562282 6.60860656,4.98303897 C6.78002981,4.8583841 6.94504471,4.68481403 6.93543219,4.44970548 C6.93062593,4.34240761 6.90178838,4.23668766 6.86173621,4.13412353 C7.07801788,4.04576058 7.35678092,3.99684538 7.71244411,4.03787103 C8.47503726,4.12623398 8.62563338,4.59487317 8.59679583,4.79211189 C8.56795827,4.98935061 8.40774963,5.09664847 8.35488077,5.12978458 C8.30201192,5.16292068 8.28438897,5.17396605 8.28919523,5.19763469 C8.29560358,5.23234871 8.32123696,5.2307708 8.36609538,5.22445916 C8.42857675,5.21341379 8.76661699,5.06509028 8.78103577,4.70217103 C8.8130775,4.2429993 8.36449329,3.73806818 7.57146051,3.74280191 L7.57146051,3.74280191 Z M1.68859911,5.69625417 C1.43546945,5.96765465 1.08301043,6.07021878 0.930812221,5.98343375 C0.767399404,5.89033707 0.831482861,5.489548 1.14228763,5.20236842 C1.33133383,5.02722044 1.57485097,4.86469574 1.7366617,4.76528742 C1.77350969,4.74319669 1.82798063,4.71163849 1.89366617,4.67219075 C1.90488077,4.66587911 1.91128912,4.66272329 1.91128912,4.66272329 L1.91128912,4.66272329 C1.92410581,4.65483374 1.9369225,4.64694419 1.9497392,4.63905465 C2.06348733,5.04931118 1.95454545,5.41065251 1.68859911,5.69625417 L1.68859911,5.69625417 Z M3.52939642,4.46232875 C3.44128167,4.67376866 3.25704173,5.2149917 3.14489568,5.18501142 C3.04877049,5.15976486 2.98949329,4.74950833 3.12567064,4.34398552 C3.19456036,4.14043517 3.34035022,3.89743707 3.4252608,3.80276248 C3.56304024,3.65128315 3.71523845,3.60079003 3.75208644,3.66232851 C3.80014903,3.741224 3.58546945,4.32978434 3.52939642,4.46232875 L3.52939642,4.46232875 Z M5.05137854,5.17712187 C5.01453055,5.19605678 4.97928465,5.20868006 4.96326379,5.1992126 C4.95204918,5.19290097 4.97928465,5.16765441 4.97928465,5.16765441 C4.97928465,5.16765441 5.16993294,4.96568196 5.245231,4.8741632 C5.28848733,4.82051427 5.3397541,4.75739788 5.39422504,4.68639194 L5.39422504,4.70690476 C5.39422504,4.94832495 5.15711624,5.11242757 5.05137854,5.17712187 L5.05137854,5.17712187 Z M6.22410581,4.91361094 C6.19687034,4.89467602 6.2016766,4.83155963 6.29299553,4.63432092 C6.32824143,4.55700334 6.41154993,4.42761474 6.55413562,4.30295987 C6.57015648,4.35345298 6.58137109,4.40236818 6.579769,4.44812757 C6.57816692,4.75424206 6.35707899,4.86785156 6.22410581,4.91361094 L6.22410581,4.91361094 Z" id="Shape"></path>
        </g>
    </g>
</svg>