<?xml version="1.0" encoding="UTF-8" standalone="no"?>
<svg width="13px" height="13px" viewBox="0 0 13 13" version="1.1" xmlns="http://www.w3.org/2000/svg" xmlns:xlink="http://www.w3.org/1999/xlink">
    <!-- Generator: Sketch 39.1 (31720) - http://www.bohemiancoding.com/sketch -->
    <title>settings</title>
    <desc>Created with Sketch.</desc>
    <defs></defs>
    <g id="Icons" stroke="none" stroke-width="1" fill="none" fill-rule="evenodd">
        <g id="Group-28-Copy-2" transform="translate(2.000000, 3.000000)" fill="#454545">
            <path d="M2.27987234,3.32062222 L1.68089362,3.32062222 L1.68089362,0.245333333 C1.68089362,0.109866667 1.56255319,0 1.41654255,0 C1.27062766,0 1.15228723,0.109866667 1.15228723,0.245333333 L1.15228723,3.32062222 L0.623968085,3.32062222 C0.279382979,3.32062222 0,3.58 0,3.89991111 C0,4.21991111 0.279382979,4.47928889 0.623968085,4.47928889 L1.15228723,4.47928889 L1.15228723,6.9184 C1.15228723,7.05395556 1.27062766,7.16382222 1.41654255,7.16382222 C1.56255319,7.16382222 1.68089362,7.05404444 1.68089362,6.9184 L1.68089362,4.47928889 L2.27987234,4.47928889 C2.62455319,4.47928889 2.90384043,4.21991111 2.90384043,3.89991111 C2.90384043,3.58 2.62455319,3.32062222 2.27987234,3.32062222 L2.27987234,3.32062222 Z" id="Shape"></path>
            <path d="M5.27996809,5.18533333 L4.64565957,5.18533333 L4.64565957,0.245333333 C4.64565957,0.109866667 4.52731915,0 4.38130851,0 C4.23529787,0 4.11705319,0.109866667 4.11705319,0.245333333 L4.11705319,5.18533333 L3.62396809,5.18533333 C3.27938298,5.18533333 3,5.44471111 3,5.76471111 C3,6.08462222 3.27938298,6.344 3.62396809,6.344 L4.11705319,6.344 L4.11705319,6.9184 C4.11705319,7.05395556 4.23539362,7.16382222 4.38130851,7.16382222 C4.5272234,7.16382222 4.64565957,7.05404444 4.64565957,6.9184 L4.64565957,6.344 L5.27996809,6.344 C5.62455319,6.344 5.90393617,6.08462222 5.90393617,5.76471111 C5.90393617,5.44471111 5.62455319,5.18533333 5.27996809,5.18533333 L5.27996809,5.18533333 Z" id="Shape"></path>
            <path d="M8.27996809,1.45582222 L7.71612766,1.45582222 L7.71612766,0.245333333 C7.71612766,0.109866667 7.59788298,0 7.4517766,0 C7.3058617,0 7.18752128,0.109866667 7.18752128,0.245333333 L7.18752128,1.45582222 L6.62396809,1.45582222 C6.27938298,1.45582222 6,1.71511111 6,2.03511111 C6,2.35502222 6.27938298,2.6144 6.62396809,2.6144 L7.18761702,2.6144 L7.18761702,6.91831111 C7.18761702,7.05386667 7.3058617,7.16373333 7.45187234,7.16373333 C7.59788298,7.16373333 7.7162234,7.05395556 7.7162234,6.91831111 L7.7162234,2.6144 L8.28006383,2.6144 C8.62474468,2.6144 8.90403191,2.35502222 8.90403191,2.03511111 C8.90393617,1.71511111 8.62464894,1.45582222 8.27996809,1.45582222 L8.27996809,1.45582222 Z" id="Shape"></path>
        </g>
    </g>
</svg>