<?xml version="1.0" encoding="UTF-8" standalone="no"?>
<svg width="13px" height="13px" viewBox="0 0 13 13" version="1.1" xmlns="http://www.w3.org/2000/svg" xmlns:xlink="http://www.w3.org/1999/xlink">
    <!-- Generator: Sketch 39.1 (31720) - http://www.bohemiancoding.com/sketch -->
    <title>setup</title>
    <desc>Created with Sketch.</desc>
    <defs></defs>
    <g id="Icons" stroke="none" stroke-width="1" fill="none" fill-rule="evenodd">
        <g id="Group-27-Copy-2" transform="translate(3.000000, 3.000000)">
            <ellipse id="Oval" cx="3.49" cy="4.26780627" rx="3.49" ry="3.49002849"></ellipse>
            <path d="M5.06,0.777777778 L4.81,1.32621083 C5.74,1.8048433 6.38,2.77207977 6.38,3.8988604 C6.38,5.49430199 5.08,6.79059829 3.49,6.79059829 C1.9,6.79059829 0.6,5.49430199 0.6,3.8988604 C0.6,2.78205128 1.24,1.81481481 2.17,1.32621083 L1.92,0.777777778 C0.78,1.35612536 0,2.53276353 0,3.88888889 C0,5.81339031 1.56,7.37891738 3.49,7.37891738 C5.42,7.37891738 6.98,5.81339031 6.98,3.88888889 C6.98,2.53276353 6.2,1.35612536 5.06,0.777777778 L5.06,0.777777778 Z" id="Shape" fill="#454545"></path>
            <path d="M3.41111111,0 C3.58111111,0 3.71111111,0.12962963 3.71111111,0.299145299 L3.71111111,4.27777778 C3.71111111,4.44729345 3.58111111,4.57692308 3.41111111,4.57692308 C3.24111111,4.57692308 3.11111111,4.44729345 3.11111111,4.27777778 L3.11111111,0.299145299 C3.11111111,0.12962963 3.24111111,0 3.41111111,0 L3.41111111,0 Z" id="Shape" fill="#454545"></path>
        </g>
    </g>
</svg>